<mxfile host="app.diagrams.net" modified="2023-02-10T14:13:13.745Z" agent="5.0 (Macintosh; Intel Mac OS X 10_15_7) AppleWebKit/537.36 (KHTML, like Gecko) Chrome/107.0.0.0 Safari/537.36" etag="510YzYVmv2mCBB60hLIe" version="20.8.19" type="github">
  <diagram name="第 1 页" id="JbaxSUuwmMwugx7oRCqP">
    <mxGraphModel dx="1026" dy="683" grid="1" gridSize="10" guides="1" tooltips="1" connect="1" arrows="1" fold="1" page="1" pageScale="1" pageWidth="827" pageHeight="1169" math="0" shadow="0">
      <root>
        <mxCell id="0" />
        <mxCell id="1" parent="0" />
        <mxCell id="8lv_WoFP3hUaKJV0ONWV-6" value="" style="edgeStyle=orthogonalEdgeStyle;rounded=0;orthogonalLoop=1;jettySize=auto;html=1;" edge="1" parent="1" source="8lv_WoFP3hUaKJV0ONWV-1" target="8lv_WoFP3hUaKJV0ONWV-5">
          <mxGeometry relative="1" as="geometry" />
        </mxCell>
        <mxCell id="8lv_WoFP3hUaKJV0ONWV-1" value="&lt;b&gt;玩家&lt;/b&gt;" style="shape=umlActor;verticalLabelPosition=bottom;verticalAlign=top;html=1;outlineConnect=0;" vertex="1" parent="1">
          <mxGeometry x="100" y="270" width="30" height="60" as="geometry" />
        </mxCell>
        <mxCell id="8lv_WoFP3hUaKJV0ONWV-8" value="" style="edgeStyle=orthogonalEdgeStyle;rounded=0;orthogonalLoop=1;jettySize=auto;html=1;" edge="1" parent="1" source="8lv_WoFP3hUaKJV0ONWV-5" target="8lv_WoFP3hUaKJV0ONWV-7">
          <mxGeometry relative="1" as="geometry" />
        </mxCell>
        <mxCell id="8lv_WoFP3hUaKJV0ONWV-5" value="&lt;font style=&quot;font-size: 18px;&quot;&gt;抽到车辆A&lt;/font&gt;" style="rounded=1;whiteSpace=wrap;html=1;" vertex="1" parent="1">
          <mxGeometry x="210" y="270" width="120" height="60" as="geometry" />
        </mxCell>
        <mxCell id="8lv_WoFP3hUaKJV0ONWV-10" value="" style="edgeStyle=orthogonalEdgeStyle;rounded=0;orthogonalLoop=1;jettySize=auto;html=1;fontSize=14;" edge="1" parent="1" source="8lv_WoFP3hUaKJV0ONWV-7" target="8lv_WoFP3hUaKJV0ONWV-9">
          <mxGeometry relative="1" as="geometry" />
        </mxCell>
        <mxCell id="8lv_WoFP3hUaKJV0ONWV-11" value="是" style="edgeLabel;html=1;align=center;verticalAlign=middle;resizable=0;points=[];fontSize=14;" vertex="1" connectable="0" parent="8lv_WoFP3hUaKJV0ONWV-10">
          <mxGeometry x="-0.2667" y="4" relative="1" as="geometry">
            <mxPoint as="offset" />
          </mxGeometry>
        </mxCell>
        <mxCell id="8lv_WoFP3hUaKJV0ONWV-7" value="&lt;font style=&quot;font-size: 14px;&quot;&gt;持有车辆A、B、C&lt;br&gt;总数超过阈值&lt;/font&gt;" style="rhombus;whiteSpace=wrap;html=1;rounded=1;" vertex="1" parent="1">
          <mxGeometry x="380" y="250" width="150" height="100" as="geometry" />
        </mxCell>
        <mxCell id="8lv_WoFP3hUaKJV0ONWV-9" value="&lt;font style=&quot;font-size: 14px;&quot;&gt;分解为活动碎片&lt;/font&gt;" style="whiteSpace=wrap;html=1;rounded=1;" vertex="1" parent="1">
          <mxGeometry x="590" y="270" width="120" height="60" as="geometry" />
        </mxCell>
        <mxCell id="8lv_WoFP3hUaKJV0ONWV-13" value="&lt;font style=&quot;font-size: 14px;&quot;&gt;发放车辆A&lt;/font&gt;" style="whiteSpace=wrap;html=1;rounded=1;" vertex="1" parent="1">
          <mxGeometry x="590" y="360" width="120" height="60" as="geometry" />
        </mxCell>
      </root>
    </mxGraphModel>
  </diagram>
</mxfile>
